# xmcd
#
# Track frame offsets: 
#        150
#        17035
#        30521
#        46173
#        64419
#        71739
#        110173
#        130563
#        148465
#
# Disc length: 2070 seconds
#
# Revision: 1
# Processed by: cddbd v1.5.2PL0 Copyright (c) Steve Scherf et al.
# Submitted via: ExactAudioCopy v0.99pb5
#
DISCID=85081409
DTITLE=The Ledendary J.C.s (The Joint Chiefs) - The Church of What's H
DTITLE=appenin' Now
DYEAR=2002
DGENRE=Soul
TTITLE0=Rivers
TTITLE1=Down This Road Before
TTITLE2=Luella
TTITLE3=Memphis
TTITLE4=Gospel
TTITLE5=Soul of A Man (live)
TTITLE6=Don't Move Me
TTITLE7=So Long
TTITLE8=Gospel Reprise
EXTD=
EXTT0=
EXTT1=
EXTT2=
EXTT3=
EXTT4=
EXTT5=
EXTT6=
EXTT7=
EXTT8=
PLAYORDER=
